%TF.GenerationSoftware,KiCad,Pcbnew,(6.0.2)*%
%TF.CreationDate,2022-04-04T15:14:36-07:00*%
%TF.ProjectId,tc_pcb_f,74635f70-6362-45f6-962e-6b696361645f,rev?*%
%TF.SameCoordinates,Original*%
%TF.FileFunction,Copper,L1,Top*%
%TF.FilePolarity,Positive*%
%FSLAX46Y46*%
G04 Gerber Fmt 4.6, Leading zero omitted, Abs format (unit mm)*
G04 Created by KiCad (PCBNEW (6.0.2)) date 2022-04-04 15:14:36*
%MOMM*%
%LPD*%
G01*
G04 APERTURE LIST*
%TA.AperFunction,ComponentPad*%
%ADD10C,1.524000*%
%TD*%
%TA.AperFunction,ComponentPad*%
%ADD11R,1.524000X1.524000*%
%TD*%
%TA.AperFunction,Conductor*%
%ADD12C,0.250000*%
%TD*%
G04 APERTURE END LIST*
D10*
%TO.P,U6,1,Vin*%
%TO.N,VCC*%
X145621200Y-95676200D03*
%TO.P,U6,2,3Vo*%
%TO.N,unconnected-(U6-Pad2)*%
X145621200Y-98216200D03*
%TO.P,U6,3,GND*%
%TO.N,GND*%
X145621200Y-100756200D03*
%TO.P,U6,4,D0*%
%TO.N,PB3*%
X145621200Y-103296200D03*
%TO.P,U6,5,CS*%
%TO.N,PB6*%
X145621200Y-105836200D03*
%TO.P,U6,6,CLK*%
%TO.N,PB1*%
X145621200Y-108376200D03*
%TD*%
%TO.P,U2,1,Vin*%
%TO.N,VCC*%
X145651200Y-71444600D03*
%TO.P,U2,2,3Vo*%
%TO.N,unconnected-(U2-Pad2)*%
X145651200Y-73984600D03*
%TO.P,U2,3,GND*%
%TO.N,GND*%
X145651200Y-76524600D03*
%TO.P,U2,4,D0*%
%TO.N,PB3*%
X145651200Y-79064600D03*
%TO.P,U2,5,CS*%
%TO.N,PB7*%
X145651200Y-81604600D03*
%TO.P,U2,6,CLK*%
%TO.N,PB1*%
X145651200Y-84144600D03*
%TD*%
%TO.P,U3,1,Vin*%
%TO.N,VCC*%
X145575000Y-47314600D03*
%TO.P,U3,2,3Vo*%
%TO.N,unconnected-(U3-Pad2)*%
X145575000Y-49854600D03*
%TO.P,U3,3,GND*%
%TO.N,GND*%
X145575000Y-52394600D03*
%TO.P,U3,4,D0*%
%TO.N,PB3*%
X145575000Y-54934600D03*
%TO.P,U3,5,CS*%
%TO.N,PD6*%
X145575000Y-57474600D03*
%TO.P,U3,6,CLK*%
%TO.N,PB1*%
X145575000Y-60014600D03*
%TD*%
%TO.P,U5,1,Vin*%
%TO.N,VCC*%
X145570400Y-119247400D03*
%TO.P,U5,2,3Vo*%
%TO.N,unconnected-(U5-Pad2)*%
X145570400Y-121787400D03*
%TO.P,U5,3,GND*%
%TO.N,GND*%
X145570400Y-124327400D03*
%TO.P,U5,4,D0*%
%TO.N,PB3*%
X145570400Y-126867400D03*
%TO.P,U5,5,CS*%
%TO.N,PB5*%
X145570400Y-129407400D03*
%TO.P,U5,6,CLK*%
%TO.N,PB1*%
X145570400Y-131947400D03*
%TD*%
%TO.P,U4,1,Vin*%
%TO.N,VCC*%
X145595800Y-142259800D03*
%TO.P,U4,2,3Vo*%
%TO.N,unconnected-(U4-Pad2)*%
X145595800Y-144799800D03*
%TO.P,U4,3,GND*%
%TO.N,GND*%
X145595800Y-147339800D03*
%TO.P,U4,4,D0*%
%TO.N,PB3*%
X145595800Y-149879800D03*
%TO.P,U4,5,CS*%
%TO.N,PC6*%
X145595800Y-152419800D03*
%TO.P,U4,6,CLK*%
%TO.N,PB1*%
X145595800Y-154959800D03*
%TD*%
D11*
%TO.P,U7,1,GND*%
%TO.N,GND*%
X108026200Y-43027600D03*
D10*
%TO.P,U7,2,pwr1*%
%TO.N,VCC*%
X108026200Y-45567600D03*
%TD*%
%TO.P,U1,1,~{RESET*%
%TO.N,unconnected-(U1-Pad1)*%
X105410000Y-84328000D03*
%TO.P,U1,2,3V3*%
%TO.N,VCC*%
X105410000Y-86868000D03*
%TO.P,U1,3,AREF*%
%TO.N,unconnected-(U1-Pad3)*%
X105410000Y-89408000D03*
%TO.P,U1,4,GND*%
%TO.N,GND*%
X105410000Y-91948000D03*
%TO.P,U1,5,PF7*%
%TO.N,unconnected-(U1-Pad5)*%
X105410000Y-94488000D03*
%TO.P,U1,6,PF6*%
%TO.N,unconnected-(U1-Pad6)*%
X105410000Y-97028000D03*
%TO.P,U1,7,PF5*%
%TO.N,unconnected-(U1-Pad7)*%
X105410000Y-99568000D03*
%TO.P,U1,8,PF4*%
%TO.N,unconnected-(U1-Pad8)*%
X105410000Y-102108000D03*
%TO.P,U1,9,PF1*%
%TO.N,unconnected-(U1-Pad9)*%
X105410000Y-104648000D03*
%TO.P,U1,10,PF0*%
%TO.N,unconnected-(U1-Pad10)*%
X105410000Y-107188000D03*
%TO.P,U1,11,PB1*%
%TO.N,PB1*%
X105410000Y-109728000D03*
%TO.P,U1,12,PB2*%
%TO.N,unconnected-(U1-Pad12)*%
X105410000Y-112268000D03*
%TO.P,U1,13,PB3*%
%TO.N,PB3*%
X105410000Y-114808000D03*
%TO.P,U1,14,PD2*%
%TO.N,unconnected-(U1-Pad14)*%
X105410000Y-117348000D03*
%TO.P,U1,15,PD3*%
%TO.N,unconnected-(U1-Pad15)*%
X105410000Y-119888000D03*
%TO.P,U1,16,IO1*%
%TO.N,unconnected-(U1-Pad16)*%
X105410000Y-122428000D03*
%TO.P,U1,19,PD1*%
%TO.N,unconnected-(U1-Pad19)*%
X128270000Y-122428000D03*
%TO.P,U1,20,PD0*%
%TO.N,unconnected-(U1-Pad20)*%
X128270000Y-119888000D03*
%TO.P,U1,21,PC6*%
%TO.N,PC6*%
X128270000Y-117348000D03*
%TO.P,U1,22,PD7*%
%TO.N,unconnected-(U1-Pad22)*%
X128270000Y-114808000D03*
%TO.P,U1,23,PB5*%
%TO.N,PB5*%
X128270000Y-112268000D03*
%TO.P,U1,24,PB6*%
%TO.N,PB6*%
X128270000Y-109728000D03*
%TO.P,U1,25,PB7*%
%TO.N,PB7*%
X128270000Y-107188000D03*
%TO.P,U1,26,PD6*%
%TO.N,PD6*%
X128270000Y-104648000D03*
%TO.P,U1,27,PC7*%
%TO.N,unconnected-(U1-Pad27)*%
X128270000Y-102108000D03*
%TO.P,U1,28,VBUS*%
%TO.N,unconnected-(U1-Pad28)*%
X128270000Y-99568000D03*
%TO.P,U1,29,En*%
%TO.N,unconnected-(U1-Pad29)*%
X128270000Y-97028000D03*
%TO.P,U1,30,VBAT*%
%TO.N,unconnected-(U1-Pad30)*%
X128270000Y-94488000D03*
%TD*%
D12*
%TO.N,VCC*%
X144488489Y-70281889D02*
X144488489Y-59473511D01*
X145595800Y-135677240D02*
X128720049Y-118801489D01*
X128720049Y-118801489D02*
X127691489Y-118801489D01*
X145575000Y-47314600D02*
X144323800Y-48565800D01*
X127819951Y-110814511D02*
X125070600Y-108065160D01*
X146661511Y-58062489D02*
X146661511Y-49379511D01*
X110972600Y-45567600D02*
X108026200Y-45567600D01*
X137137511Y-110814511D02*
X127819951Y-110814511D01*
X113334800Y-56083200D02*
X113334800Y-47929800D01*
X125070600Y-108065160D02*
X125070600Y-67819000D01*
X145570400Y-119247400D02*
X137137511Y-110814511D01*
X145400889Y-58561111D02*
X146162889Y-58561111D01*
X141318360Y-95676200D02*
X128720049Y-108274511D01*
X113334800Y-47929800D02*
X110972600Y-45567600D01*
X145621200Y-95676200D02*
X141318360Y-95676200D01*
X125070600Y-106528600D02*
X125070600Y-67819000D01*
X145651200Y-71444600D02*
X144488489Y-70281889D01*
X125070600Y-67819000D02*
X106021600Y-86868000D01*
X144488489Y-59473511D02*
X145400889Y-58561111D01*
X145595800Y-142259800D02*
X145595800Y-135677240D01*
X106021600Y-86868000D02*
X105410000Y-86868000D01*
X127691489Y-118801489D02*
X125070600Y-116180600D01*
X125070600Y-116180600D02*
X125070600Y-108065160D01*
X144323800Y-48565800D02*
X125070600Y-67819000D01*
X146661511Y-49379511D02*
X145847800Y-48565800D01*
X126816511Y-108274511D02*
X125070600Y-106528600D01*
X146162889Y-58561111D02*
X146661511Y-58062489D01*
X128720049Y-108274511D02*
X126816511Y-108274511D01*
X145847800Y-48565800D02*
X144323800Y-48565800D01*
X125070600Y-67819000D02*
X113334800Y-56083200D01*
%TO.N,PB5*%
X145570400Y-129407400D02*
X128431000Y-112268000D01*
X128431000Y-112268000D02*
X128270000Y-112268000D01*
%TO.N,PB6*%
X132161800Y-105836200D02*
X128270000Y-109728000D01*
X145621200Y-105836200D02*
X132161800Y-105836200D01*
%TO.N,PB7*%
X144564689Y-82691111D02*
X144564689Y-90893311D01*
X144564689Y-90893311D02*
X128270000Y-107188000D01*
X145651200Y-81604600D02*
X144564689Y-82691111D01*
%TO.N,PD6*%
X129356511Y-103561489D02*
X128270000Y-104648000D01*
X145575000Y-57474600D02*
X129356511Y-73693089D01*
X129356511Y-73693089D02*
X129356511Y-103561489D01*
%TO.N,PC6*%
X146682311Y-135760311D02*
X128270000Y-117348000D01*
X146682311Y-151333289D02*
X146682311Y-135760311D01*
X145595800Y-152419800D02*
X146682311Y-151333289D01*
%TO.N,PB1*%
X147574000Y-84074000D02*
X147574000Y-108204000D01*
X145595800Y-154959800D02*
X147339800Y-154959800D01*
X145575000Y-60014600D02*
X147574000Y-62013600D01*
X147574000Y-132080000D02*
X147574000Y-155194000D01*
X147503400Y-84144600D02*
X147574000Y-84074000D01*
X119126000Y-123444000D02*
X105410000Y-109728000D01*
X145231600Y-131947400D02*
X145307711Y-132023511D01*
X145257000Y-108376200D02*
X145307711Y-108426911D01*
X145621200Y-108376200D02*
X147401800Y-108376200D01*
X147574000Y-62013600D02*
X147574000Y-84074000D01*
X145651200Y-84144600D02*
X147503400Y-84144600D01*
X145570400Y-131947400D02*
X147441400Y-131947400D01*
X147574000Y-157226000D02*
X129286000Y-157226000D01*
X119126000Y-147066000D02*
X119126000Y-123444000D01*
X147441400Y-131947400D02*
X147574000Y-132080000D01*
X129286000Y-157226000D02*
X119126000Y-147066000D01*
X147339800Y-154959800D02*
X147574000Y-155194000D01*
X145268200Y-84144600D02*
X145307711Y-84105089D01*
X147574000Y-108204000D02*
X147574000Y-132080000D01*
X147574000Y-155194000D02*
X147574000Y-157226000D01*
X147401800Y-108376200D02*
X147574000Y-108204000D01*
%TD*%
M02*
