%TF.GenerationSoftware,KiCad,Pcbnew,(6.0.2)*%
%TF.CreationDate,2022-04-04T15:14:36-07:00*%
%TF.ProjectId,tc_pcb_f,74635f70-6362-45f6-962e-6b696361645f,rev?*%
%TF.SameCoordinates,Original*%
%TF.FileFunction,Legend,Top*%
%TF.FilePolarity,Positive*%
%FSLAX46Y46*%
G04 Gerber Fmt 4.6, Leading zero omitted, Abs format (unit mm)*
G04 Created by KiCad (PCBNEW (6.0.2)) date 2022-04-04 15:14:36*
%MOMM*%
%LPD*%
G01*
G04 APERTURE LIST*
%ADD10C,0.150000*%
%ADD11C,0.120000*%
G04 APERTURE END LIST*
D10*
%TO.C,U6*%
X169021219Y-92684695D02*
X168211695Y-92684695D01*
X168116457Y-92732314D01*
X168068838Y-92779933D01*
X168021219Y-92875171D01*
X168021219Y-93065647D01*
X168068838Y-93160885D01*
X168116457Y-93208504D01*
X168211695Y-93256123D01*
X169021219Y-93256123D01*
X169021219Y-94160885D02*
X169021219Y-93970409D01*
X168973600Y-93875171D01*
X168925980Y-93827552D01*
X168783123Y-93732314D01*
X168592647Y-93684695D01*
X168211695Y-93684695D01*
X168116457Y-93732314D01*
X168068838Y-93779933D01*
X168021219Y-93875171D01*
X168021219Y-94065647D01*
X168068838Y-94160885D01*
X168116457Y-94208504D01*
X168211695Y-94256123D01*
X168449790Y-94256123D01*
X168545028Y-94208504D01*
X168592647Y-94160885D01*
X168640266Y-94065647D01*
X168640266Y-93875171D01*
X168592647Y-93779933D01*
X168545028Y-93732314D01*
X168449790Y-93684695D01*
%TO.C,U2*%
X169051219Y-68453095D02*
X168241695Y-68453095D01*
X168146457Y-68500714D01*
X168098838Y-68548333D01*
X168051219Y-68643571D01*
X168051219Y-68834047D01*
X168098838Y-68929285D01*
X168146457Y-68976904D01*
X168241695Y-69024523D01*
X169051219Y-69024523D01*
X168955980Y-69453095D02*
X169003600Y-69500714D01*
X169051219Y-69595952D01*
X169051219Y-69834047D01*
X169003600Y-69929285D01*
X168955980Y-69976904D01*
X168860742Y-70024523D01*
X168765504Y-70024523D01*
X168622647Y-69976904D01*
X168051219Y-69405476D01*
X168051219Y-70024523D01*
%TO.C,U3*%
X168975019Y-44323095D02*
X168165495Y-44323095D01*
X168070257Y-44370714D01*
X168022638Y-44418333D01*
X167975019Y-44513571D01*
X167975019Y-44704047D01*
X168022638Y-44799285D01*
X168070257Y-44846904D01*
X168165495Y-44894523D01*
X168975019Y-44894523D01*
X168975019Y-45275476D02*
X168975019Y-45894523D01*
X168594066Y-45561190D01*
X168594066Y-45704047D01*
X168546447Y-45799285D01*
X168498828Y-45846904D01*
X168403590Y-45894523D01*
X168165495Y-45894523D01*
X168070257Y-45846904D01*
X168022638Y-45799285D01*
X167975019Y-45704047D01*
X167975019Y-45418333D01*
X168022638Y-45323095D01*
X168070257Y-45275476D01*
%TO.C,U5*%
X168970419Y-116255895D02*
X168160895Y-116255895D01*
X168065657Y-116303514D01*
X168018038Y-116351133D01*
X167970419Y-116446371D01*
X167970419Y-116636847D01*
X168018038Y-116732085D01*
X168065657Y-116779704D01*
X168160895Y-116827323D01*
X168970419Y-116827323D01*
X168970419Y-117779704D02*
X168970419Y-117303514D01*
X168494228Y-117255895D01*
X168541847Y-117303514D01*
X168589466Y-117398752D01*
X168589466Y-117636847D01*
X168541847Y-117732085D01*
X168494228Y-117779704D01*
X168398990Y-117827323D01*
X168160895Y-117827323D01*
X168065657Y-117779704D01*
X168018038Y-117732085D01*
X167970419Y-117636847D01*
X167970419Y-117398752D01*
X168018038Y-117303514D01*
X168065657Y-117255895D01*
%TO.C,U4*%
X168995819Y-139268295D02*
X168186295Y-139268295D01*
X168091057Y-139315914D01*
X168043438Y-139363533D01*
X167995819Y-139458771D01*
X167995819Y-139649247D01*
X168043438Y-139744485D01*
X168091057Y-139792104D01*
X168186295Y-139839723D01*
X168995819Y-139839723D01*
X168662485Y-140744485D02*
X167995819Y-140744485D01*
X169043438Y-140506390D02*
X168329152Y-140268295D01*
X168329152Y-140887342D01*
%TO.C,U7*%
X105522780Y-47751904D02*
X106332304Y-47751904D01*
X106427542Y-47704285D01*
X106475161Y-47656666D01*
X106522780Y-47561428D01*
X106522780Y-47370952D01*
X106475161Y-47275714D01*
X106427542Y-47228095D01*
X106332304Y-47180476D01*
X105522780Y-47180476D01*
X105522780Y-46799523D02*
X105522780Y-46132857D01*
X106522780Y-46561428D01*
%TO.C,U1*%
X106680095Y-76058780D02*
X106680095Y-76868304D01*
X106727714Y-76963542D01*
X106775333Y-77011161D01*
X106870571Y-77058780D01*
X107061047Y-77058780D01*
X107156285Y-77011161D01*
X107203904Y-76963542D01*
X107251523Y-76868304D01*
X107251523Y-76058780D01*
X108251523Y-77058780D02*
X107680095Y-77058780D01*
X107965809Y-77058780D02*
X107965809Y-76058780D01*
X107870571Y-76201638D01*
X107775333Y-76296876D01*
X107680095Y-76344495D01*
D11*
%TO.C,U7*%
X107026200Y-41797600D02*
X109026200Y-41797600D01*
X109026200Y-46797600D02*
X109026200Y-41797600D01*
X107026200Y-46797600D02*
X107026200Y-41797600D01*
X107026200Y-46797600D02*
X109026200Y-46797600D01*
%TO.C,U1*%
X128295400Y-128803400D02*
X105384600Y-128803400D01*
X105384600Y-128803400D02*
X105384600Y-77952600D01*
X105384600Y-77952600D02*
X128295400Y-77952600D01*
X128295400Y-77952600D02*
X128295400Y-128803400D01*
%TD*%
M02*
