M48
; DRILL file {KiCad (6.0.2)} date Mon Apr  4 15:14:38 2022
; FORMAT={-:-/ absolute / inch / decimal}
; #@! TF.CreationDate,2022-04-04T15:14:38-07:00
; #@! TF.GenerationSoftware,Kicad,Pcbnew,(6.0.2)
; #@! TF.FileFunction,Plated,1,2,PTH
FMAT,2
INCH
; #@! TA.AperFunction,Plated,PTH,ComponentDrill
T1C0.0394
%
G90
G05
T1
X4.15Y-3.32
X4.15Y-3.42
X4.15Y-3.52
X4.15Y-3.62
X4.15Y-3.72
X4.15Y-3.82
X4.15Y-3.92
X4.15Y-4.02
X4.15Y-4.12
X4.15Y-4.22
X4.15Y-4.32
X4.15Y-4.42
X4.15Y-4.52
X4.15Y-4.62
X4.15Y-4.72
X4.15Y-4.82
X4.253Y-1.694
X4.253Y-1.794
X5.05Y-3.72
X5.05Y-3.82
X5.05Y-3.92
X5.05Y-4.02
X5.05Y-4.12
X5.05Y-4.22
X5.05Y-4.32
X5.05Y-4.42
X5.05Y-4.52
X5.05Y-4.62
X5.05Y-4.72
X5.05Y-4.82
X5.7311Y-4.6948
X5.7311Y-4.7948
X5.7311Y-4.8948
X5.7311Y-4.9948
X5.7311Y-5.0948
X5.7311Y-5.1948
X5.7313Y-1.8628
X5.7313Y-1.9628
X5.7313Y-2.0628
X5.7313Y-2.1628
X5.7313Y-2.2628
X5.7313Y-2.3628
X5.7321Y-5.6008
X5.7321Y-5.7008
X5.7321Y-5.8008
X5.7321Y-5.9008
X5.7321Y-6.0008
X5.7321Y-6.1008
X5.7331Y-3.7668
X5.7331Y-3.8668
X5.7331Y-3.9668
X5.7331Y-4.0668
X5.7331Y-4.1668
X5.7331Y-4.2668
X5.7343Y-2.8128
X5.7343Y-2.9128
X5.7343Y-3.0128
X5.7343Y-3.1128
X5.7343Y-3.2128
X5.7343Y-3.3128
T0
M30
