%TF.GenerationSoftware,KiCad,Pcbnew,(6.0.2)*%
%TF.CreationDate,2022-04-04T15:14:36-07:00*%
%TF.ProjectId,tc_pcb_f,74635f70-6362-45f6-962e-6b696361645f,rev?*%
%TF.SameCoordinates,Original*%
%TF.FileFunction,Soldermask,Top*%
%TF.FilePolarity,Negative*%
%FSLAX46Y46*%
G04 Gerber Fmt 4.6, Leading zero omitted, Abs format (unit mm)*
G04 Created by KiCad (PCBNEW (6.0.2)) date 2022-04-04 15:14:36*
%MOMM*%
%LPD*%
G01*
G04 APERTURE LIST*
%ADD10C,1.524000*%
%ADD11R,1.524000X1.524000*%
G04 APERTURE END LIST*
D10*
%TO.C,U6*%
X145621200Y-95676200D03*
X145621200Y-98216200D03*
X145621200Y-100756200D03*
X145621200Y-103296200D03*
X145621200Y-105836200D03*
X145621200Y-108376200D03*
%TD*%
%TO.C,U2*%
X145651200Y-71444600D03*
X145651200Y-73984600D03*
X145651200Y-76524600D03*
X145651200Y-79064600D03*
X145651200Y-81604600D03*
X145651200Y-84144600D03*
%TD*%
%TO.C,U3*%
X145575000Y-47314600D03*
X145575000Y-49854600D03*
X145575000Y-52394600D03*
X145575000Y-54934600D03*
X145575000Y-57474600D03*
X145575000Y-60014600D03*
%TD*%
%TO.C,U5*%
X145570400Y-119247400D03*
X145570400Y-121787400D03*
X145570400Y-124327400D03*
X145570400Y-126867400D03*
X145570400Y-129407400D03*
X145570400Y-131947400D03*
%TD*%
%TO.C,U4*%
X145595800Y-142259800D03*
X145595800Y-144799800D03*
X145595800Y-147339800D03*
X145595800Y-149879800D03*
X145595800Y-152419800D03*
X145595800Y-154959800D03*
%TD*%
D11*
%TO.C,U7*%
X108026200Y-43027600D03*
D10*
X108026200Y-45567600D03*
%TD*%
%TO.C,U1*%
X105410000Y-84328000D03*
X105410000Y-86868000D03*
X105410000Y-89408000D03*
X105410000Y-91948000D03*
X105410000Y-94488000D03*
X105410000Y-97028000D03*
X105410000Y-99568000D03*
X105410000Y-102108000D03*
X105410000Y-104648000D03*
X105410000Y-107188000D03*
X105410000Y-109728000D03*
X105410000Y-112268000D03*
X105410000Y-114808000D03*
X105410000Y-117348000D03*
X105410000Y-119888000D03*
X105410000Y-122428000D03*
X128270000Y-122428000D03*
X128270000Y-119888000D03*
X128270000Y-117348000D03*
X128270000Y-114808000D03*
X128270000Y-112268000D03*
X128270000Y-109728000D03*
X128270000Y-107188000D03*
X128270000Y-104648000D03*
X128270000Y-102108000D03*
X128270000Y-99568000D03*
X128270000Y-97028000D03*
X128270000Y-94488000D03*
%TD*%
M02*
