%TF.GenerationSoftware,KiCad,Pcbnew,(6.0.5)*%
%TF.CreationDate,2022-06-06T23:13:19-07:00*%
%TF.ProjectId,tc_pcb_f,74635f70-6362-45f6-962e-6b696361645f,rev?*%
%TF.SameCoordinates,Original*%
%TF.FileFunction,Copper,L1,Top*%
%TF.FilePolarity,Positive*%
%FSLAX46Y46*%
G04 Gerber Fmt 4.6, Leading zero omitted, Abs format (unit mm)*
G04 Created by KiCad (PCBNEW (6.0.5)) date 2022-06-06 23:13:19*
%MOMM*%
%LPD*%
G01*
G04 APERTURE LIST*
%TA.AperFunction,ComponentPad*%
%ADD10C,1.300000*%
%TD*%
%TA.AperFunction,ComponentPad*%
%ADD11C,3.810000*%
%TD*%
%TA.AperFunction,ComponentPad*%
%ADD12C,4.000000*%
%TD*%
%TA.AperFunction,ComponentPad*%
%ADD13R,1.600000X1.600000*%
%TD*%
%TA.AperFunction,ComponentPad*%
%ADD14C,1.600000*%
%TD*%
%TA.AperFunction,ComponentPad*%
%ADD15R,1.524000X1.524000*%
%TD*%
%TA.AperFunction,ComponentPad*%
%ADD16C,1.524000*%
%TD*%
%TA.AperFunction,Conductor*%
%ADD17C,0.350000*%
%TD*%
G04 APERTURE END LIST*
D10*
%TO.P,U2,1,Vin*%
%TO.N,unconnected-(U2-Pad1)*%
X127300000Y-94860400D03*
%TO.P,U2,2,3V3*%
%TO.N,+3V3*%
X124760000Y-94860400D03*
%TO.P,U2,3,GND*%
%TO.N,GND*%
X122220000Y-94860400D03*
%TO.P,U2,4,Dout*%
%TO.N,MISO*%
X119680000Y-94860400D03*
%TO.P,U2,5,CS*%
%TO.N,SS2*%
X117140000Y-94860400D03*
%TO.P,U2,6,CLK*%
%TO.N,SCK*%
X114600000Y-94860400D03*
D11*
%TO.P,U2,SH,SH*%
%TO.N,GND*%
X113330000Y-113300800D03*
X128570000Y-113300800D03*
%TD*%
D10*
%TO.P,U8,1,Vin*%
%TO.N,unconnected-(U8-Pad1)*%
X159824000Y-84122800D03*
%TO.P,U8,2,3V3*%
%TO.N,+3V3*%
X162364000Y-84122800D03*
%TO.P,U8,3,GND*%
%TO.N,GND*%
X164904000Y-84122800D03*
%TO.P,U8,4,Dout*%
%TO.N,MISO*%
X167444000Y-84122800D03*
%TO.P,U8,5,CS*%
%TO.N,SS8*%
X169984000Y-84122800D03*
%TO.P,U8,6,CLK*%
%TO.N,SCK*%
X172524000Y-84122800D03*
D11*
%TO.P,U8,SH,SH*%
%TO.N,GND*%
X173794000Y-65682400D03*
X158554000Y-65682400D03*
%TD*%
D10*
%TO.P,U1,1,Vin*%
%TO.N,unconnected-(U1-Pad1)*%
X104688000Y-94860400D03*
%TO.P,U1,2,3V3*%
%TO.N,+3V3*%
X102148000Y-94860400D03*
%TO.P,U1,3,GND*%
%TO.N,GND*%
X99608000Y-94860400D03*
%TO.P,U1,4,Dout*%
%TO.N,MISO*%
X97068000Y-94860400D03*
%TO.P,U1,5,CS*%
%TO.N,SS1*%
X94528000Y-94860400D03*
%TO.P,U1,6,CLK*%
%TO.N,SCK*%
X91988000Y-94860400D03*
D11*
%TO.P,U1,SH,SH*%
%TO.N,GND*%
X90718000Y-113300800D03*
X105958000Y-113300800D03*
%TD*%
D10*
%TO.P,U3,1,Vin*%
%TO.N,unconnected-(U3-Pad1)*%
X149912000Y-94860400D03*
%TO.P,U3,2,3V3*%
%TO.N,+3V3*%
X147372000Y-94860400D03*
%TO.P,U3,3,GND*%
%TO.N,GND*%
X144832000Y-94860400D03*
%TO.P,U3,4,Dout*%
%TO.N,MISO*%
X142292000Y-94860400D03*
%TO.P,U3,5,CS*%
%TO.N,SS3*%
X139752000Y-94860400D03*
%TO.P,U3,6,CLK*%
%TO.N,SCK*%
X137212000Y-94860400D03*
D11*
%TO.P,U3,SH,SH*%
%TO.N,GND*%
X135942000Y-113300800D03*
X151182000Y-113300800D03*
%TD*%
D10*
%TO.P,U4,1,Vin*%
%TO.N,unconnected-(U4-Pad1)*%
X172524000Y-94777000D03*
%TO.P,U4,2,3V3*%
%TO.N,+3V3*%
X169984000Y-94777000D03*
%TO.P,U4,3,GND*%
%TO.N,GND*%
X167444000Y-94777000D03*
%TO.P,U4,4,Dout*%
%TO.N,MISO*%
X164904000Y-94777000D03*
%TO.P,U4,5,CS*%
%TO.N,SS4*%
X162364000Y-94777000D03*
%TO.P,U4,6,CLK*%
%TO.N,SCK*%
X159824000Y-94777000D03*
D11*
%TO.P,U4,SH,SH*%
%TO.N,GND*%
X173794000Y-113217400D03*
X158554000Y-113217400D03*
%TD*%
D10*
%TO.P,U7,1,Vin*%
%TO.N,unconnected-(U7-Pad1)*%
X137212000Y-84122800D03*
%TO.P,U7,2,3V3*%
%TO.N,+3V3*%
X139752000Y-84122800D03*
%TO.P,U7,3,GND*%
%TO.N,GND*%
X142292000Y-84122800D03*
%TO.P,U7,4,Dout*%
%TO.N,MISO*%
X144832000Y-84122800D03*
%TO.P,U7,5,CS*%
%TO.N,SS7*%
X147372000Y-84122800D03*
%TO.P,U7,6,CLK*%
%TO.N,SCK*%
X149912000Y-84122800D03*
D11*
%TO.P,U7,SH,SH*%
%TO.N,GND*%
X151182000Y-65682400D03*
X135942000Y-65682400D03*
%TD*%
D12*
%TO.P,H1,1,Pin_1*%
%TO.N,GND*%
X52512000Y-119816600D03*
%TD*%
%TO.P,H2,1,Pin_1*%
%TO.N,GND*%
X52512000Y-60216600D03*
%TD*%
D13*
%TO.P,A1,1,~{RESET}*%
%TO.N,unconnected-(A1-Pad1)*%
X61762000Y-69816600D03*
D14*
%TO.P,A1,2,3V3*%
%TO.N,+3V3*%
X61762000Y-72356600D03*
%TO.P,A1,3,AREF*%
%TO.N,unconnected-(A1-Pad3)*%
X61762000Y-74896600D03*
%TO.P,A1,4,GND*%
%TO.N,GND*%
X61762000Y-77436600D03*
%TO.P,A1,5,A0*%
%TO.N,unconnected-(A1-Pad5)*%
X61762000Y-79976600D03*
%TO.P,A1,6,A1*%
%TO.N,SS8*%
X61762000Y-82516600D03*
%TO.P,A1,7,A2*%
%TO.N,unconnected-(A1-Pad7)*%
X61762000Y-85056600D03*
%TO.P,A1,8,A3*%
%TO.N,unconnected-(A1-Pad8)*%
X61762000Y-87596600D03*
%TO.P,A1,9,A4*%
%TO.N,unconnected-(A1-Pad9)*%
X61762000Y-90136600D03*
%TO.P,A1,10,A5*%
%TO.N,unconnected-(A1-Pad10)*%
X61762000Y-92676600D03*
%TO.P,A1,11,SCK*%
%TO.N,SCK*%
X61762000Y-95216600D03*
%TO.P,A1,12,MOSI*%
%TO.N,unconnected-(A1-Pad12)*%
X61762000Y-97756600D03*
%TO.P,A1,13,MISO*%
%TO.N,MISO*%
X61762000Y-100296600D03*
%TO.P,A1,14,RX*%
%TO.N,unconnected-(A1-Pad14)*%
X61762000Y-102836600D03*
%TO.P,A1,15,TX*%
%TO.N,unconnected-(A1-Pad15)*%
X61762000Y-105376600D03*
%TO.P,A1,16,SPARE*%
%TO.N,unconnected-(A1-Pad16)*%
X61762000Y-107916600D03*
%TO.P,A1,17,SDA*%
%TO.N,unconnected-(A1-Pad17)*%
X82082000Y-107916600D03*
%TO.P,A1,18,SCL*%
%TO.N,unconnected-(A1-Pad18)*%
X82082000Y-105376600D03*
%TO.P,A1,19,D0*%
%TO.N,SS1*%
X82082000Y-102836600D03*
%TO.P,A1,20,D1*%
%TO.N,SS2*%
X82082000Y-100296600D03*
%TO.P,A1,21,D2*%
%TO.N,SS3*%
X82082000Y-97756600D03*
%TO.P,A1,22,D3*%
%TO.N,SS4*%
X82082000Y-95216600D03*
%TO.P,A1,23,D4*%
%TO.N,SS5*%
X82082000Y-92676600D03*
%TO.P,A1,24,D5*%
%TO.N,SS6*%
X82082000Y-90136600D03*
%TO.P,A1,25,D6*%
%TO.N,SS7*%
X82082000Y-87596600D03*
%TO.P,A1,26,USB*%
%TO.N,+5V*%
X82082000Y-85056600D03*
%TO.P,A1,27,EN*%
%TO.N,unconnected-(A1-Pad27)*%
X82082000Y-82516600D03*
%TO.P,A1,28,VBAT*%
%TO.N,unconnected-(A1-Pad28)*%
X82082000Y-79976600D03*
%TD*%
D10*
%TO.P,U5,1,Vin*%
%TO.N,unconnected-(U5-Pad1)*%
X91988000Y-84122800D03*
%TO.P,U5,2,3V3*%
%TO.N,+3V3*%
X94528000Y-84122800D03*
%TO.P,U5,3,GND*%
%TO.N,GND*%
X97068000Y-84122800D03*
%TO.P,U5,4,Dout*%
%TO.N,MISO*%
X99608000Y-84122800D03*
%TO.P,U5,5,CS*%
%TO.N,SS5*%
X102148000Y-84122800D03*
%TO.P,U5,6,CLK*%
%TO.N,SCK*%
X104688000Y-84122800D03*
D11*
%TO.P,U5,SH,SH*%
%TO.N,GND*%
X90718000Y-65682400D03*
X105958000Y-65682400D03*
%TD*%
D12*
%TO.P,H4,1,Pin_1*%
%TO.N,GND*%
X180662000Y-119816600D03*
%TD*%
%TO.P,H3,1,Pin_1*%
%TO.N,GND*%
X180662000Y-60216600D03*
%TD*%
D10*
%TO.P,U6,1,Vin*%
%TO.N,unconnected-(U6-Pad1)*%
X114600000Y-84122800D03*
%TO.P,U6,2,3V3*%
%TO.N,+3V3*%
X117140000Y-84122800D03*
%TO.P,U6,3,GND*%
%TO.N,GND*%
X119680000Y-84122800D03*
%TO.P,U6,4,Dout*%
%TO.N,MISO*%
X122220000Y-84122800D03*
%TO.P,U6,5,CS*%
%TO.N,SS6*%
X124760000Y-84122800D03*
%TO.P,U6,6,CLK*%
%TO.N,SCK*%
X127300000Y-84122800D03*
D11*
%TO.P,U6,SH,SH*%
%TO.N,GND*%
X128570000Y-65682400D03*
X113330000Y-65682400D03*
%TD*%
D15*
%TO.P,J1,1,Pin_1*%
%TO.N,GND*%
X54840000Y-112840000D03*
D16*
%TO.P,J1,2,Pin_2*%
%TO.N,+5V*%
X54840000Y-110300000D03*
%TD*%
D15*
%TO.P,J2,1,Pin_1*%
%TO.N,GND*%
X54840000Y-106045000D03*
D16*
%TO.P,J2,2,Pin_2*%
%TO.N,+3V3*%
X54840000Y-103505000D03*
%TD*%
D17*
%TO.N,MISO*%
X62936511Y-97270101D02*
X62057521Y-96391111D01*
X101230800Y-82500000D02*
X121775000Y-82500000D01*
X61762000Y-100296600D02*
X62936511Y-99122089D01*
X98092511Y-95884911D02*
X118655489Y-95884911D01*
X62936511Y-99122089D02*
X62936511Y-97270101D01*
X122220000Y-82945000D02*
X122220000Y-84122800D01*
X141267489Y-95884911D02*
X142292000Y-94860400D01*
X120704511Y-95884911D02*
X141267489Y-95884911D01*
X60587489Y-94730101D02*
X61275501Y-94042089D01*
X91200000Y-83050000D02*
X98535200Y-83050000D01*
X98535200Y-83050000D02*
X99608000Y-84122800D01*
X95378400Y-96550000D02*
X97068000Y-94860400D01*
X144832000Y-84122800D02*
X146079800Y-82875000D01*
X163796089Y-95884911D02*
X164904000Y-94777000D01*
X118655489Y-95884911D02*
X119680000Y-94860400D01*
X119680000Y-94860400D02*
X120704511Y-95884911D01*
X61275501Y-96391111D02*
X60587489Y-95703099D01*
X91542911Y-96582089D02*
X91575000Y-96550000D01*
X143484200Y-82775000D02*
X144832000Y-84122800D01*
X61762000Y-100296600D02*
X65476511Y-96582089D01*
X62159373Y-94042089D02*
X72451462Y-83750000D01*
X166196200Y-82875000D02*
X167444000Y-84122800D01*
X99608000Y-84122800D02*
X101230800Y-82500000D01*
X142292000Y-94860400D02*
X143316511Y-95884911D01*
X122220000Y-84122800D02*
X123567800Y-82775000D01*
X97068000Y-94860400D02*
X98092511Y-95884911D01*
X143316511Y-95884911D02*
X163796089Y-95884911D01*
X65476511Y-96582089D02*
X91542911Y-96582089D01*
X121775000Y-82500000D02*
X122220000Y-82945000D01*
X146079800Y-82875000D02*
X166196200Y-82875000D01*
X72451462Y-83750000D02*
X90500000Y-83750000D01*
X123567800Y-82775000D02*
X143484200Y-82775000D01*
X61275501Y-94042089D02*
X62159373Y-94042089D01*
X90500000Y-83750000D02*
X91200000Y-83050000D01*
X60587489Y-95703099D02*
X60587489Y-94730101D01*
X62057521Y-96391111D02*
X61275501Y-96391111D01*
X91575000Y-96550000D02*
X95378400Y-96550000D01*
%TO.N,SCK*%
X61762000Y-95216600D02*
X62936511Y-94042089D01*
X62936511Y-94042089D02*
X87657911Y-94042089D01*
X148887489Y-85147311D02*
X149912000Y-84122800D01*
X128324511Y-85147311D02*
X148887489Y-85147311D01*
X91725000Y-89975000D02*
X98835800Y-89975000D01*
X104688000Y-84122800D02*
X105712511Y-85147311D01*
X137212000Y-94860400D02*
X138236511Y-93835889D01*
X115624511Y-93835889D02*
X136187489Y-93835889D01*
X113575489Y-93835889D02*
X114600000Y-94860400D01*
X150936511Y-85147311D02*
X171499489Y-85147311D01*
X105712511Y-85147311D02*
X126275489Y-85147311D01*
X127300000Y-84122800D02*
X128324511Y-85147311D01*
X98835800Y-89975000D02*
X104688000Y-84122800D01*
X158882889Y-93835889D02*
X159824000Y-94777000D01*
X149912000Y-84122800D02*
X150936511Y-85147311D01*
X61762000Y-95216600D02*
X63127489Y-93851111D01*
X171499489Y-85147311D02*
X172524000Y-84122800D01*
X63127489Y-93851111D02*
X90978711Y-93851111D01*
X126275489Y-85147311D02*
X127300000Y-84122800D01*
X93012511Y-93835889D02*
X113575489Y-93835889D01*
X136187489Y-93835889D02*
X137212000Y-94860400D01*
X87657911Y-94042089D02*
X91725000Y-89975000D01*
X91988000Y-94860400D02*
X93012511Y-93835889D01*
X138236511Y-93835889D02*
X158882889Y-93835889D01*
X90978711Y-93851111D02*
X91988000Y-94860400D01*
X114600000Y-94860400D02*
X115624511Y-93835889D01*
%TD*%
M02*
