M48
; DRILL file {KiCad (6.0.5)} date Mon 06 Jun 2022 11:13:14 PM MST
; FORMAT={-:-/ absolute / inch / decimal}
; #@! TF.CreationDate,2022-06-06T23:13:14-07:00
; #@! TF.GenerationSoftware,Kicad,Pcbnew,(6.0.5)
; #@! TF.FileFunction,Plated,1,4,PTH
FMAT,2
INCH
; #@! TA.AperFunction,Plated,PTH,ComponentDrill
T1C0.0268
; #@! TA.AperFunction,Plated,PTH,ComponentDrill
T2C0.0315
; #@! TA.AperFunction,Plated,PTH,ComponentDrill
T3C0.0900
; #@! TA.AperFunction,Plated,PTH,ComponentDrill
T4C0.1181
%
G90
G05
T1
X3.6216Y-3.3119
X3.6216Y-3.7347
X3.7216Y-3.3119
X3.7216Y-3.7347
X3.8216Y-3.3119
X3.8216Y-3.7347
X3.9216Y-3.3119
X3.9216Y-3.7347
X4.0216Y-3.3119
X4.0216Y-3.7347
X4.1216Y-3.3119
X4.1216Y-3.7347
X4.5118Y-3.3119
X4.5118Y-3.7347
X4.6118Y-3.3119
X4.6118Y-3.7347
X4.7118Y-3.3119
X4.7118Y-3.7347
X4.8118Y-3.3119
X4.8118Y-3.7347
X4.9118Y-3.3119
X4.9118Y-3.7347
X5.0118Y-3.3119
X5.0118Y-3.7347
X5.402Y-3.3119
X5.402Y-3.7347
X5.502Y-3.3119
X5.502Y-3.7347
X5.602Y-3.3119
X5.602Y-3.7347
X5.702Y-3.3119
X5.702Y-3.7347
X5.802Y-3.3119
X5.802Y-3.7347
X5.902Y-3.3119
X5.902Y-3.7347
X6.2923Y-3.3119
X6.2923Y-3.7314
X6.3923Y-3.3119
X6.3923Y-3.7314
X6.4923Y-3.3119
X6.4923Y-3.7314
X6.5923Y-3.3119
X6.5923Y-3.7314
X6.6923Y-3.3119
X6.6923Y-3.7314
X6.7923Y-3.3119
X6.7923Y-3.7314
T2
X2.1591Y-4.075
X2.1591Y-4.175
X2.1591Y-4.3425
X2.1591Y-4.4425
X2.4316Y-2.7487
X2.4316Y-2.8487
X2.4316Y-2.9487
X2.4316Y-3.0487
X2.4316Y-3.1487
X2.4316Y-3.2487
X2.4316Y-3.3487
X2.4316Y-3.4487
X2.4316Y-3.5487
X2.4316Y-3.6487
X2.4316Y-3.7487
X2.4316Y-3.8487
X2.4316Y-3.9487
X2.4316Y-4.0487
X2.4316Y-4.1487
X2.4316Y-4.2487
X3.2316Y-3.1487
X3.2316Y-3.2487
X3.2316Y-3.3487
X3.2316Y-3.4487
X3.2316Y-3.5487
X3.2316Y-3.6487
X3.2316Y-3.7487
X3.2316Y-3.8487
X3.2316Y-3.9487
X3.2316Y-4.0487
X3.2316Y-4.1487
X3.2316Y-4.2487
T3
X3.5716Y-2.5859
X3.5716Y-4.4607
X4.1716Y-2.5859
X4.1716Y-4.4607
X4.4618Y-2.5859
X4.4618Y-4.4607
X5.0618Y-2.5859
X5.0618Y-4.4607
X5.352Y-2.5859
X5.352Y-4.4607
X5.952Y-2.5859
X5.952Y-4.4607
X6.2423Y-2.5859
X6.2423Y-4.4574
X6.8423Y-2.5859
X6.8423Y-4.4574
T4
X2.0674Y-2.3707
X2.0674Y-4.7172
X7.1127Y-2.3707
X7.1127Y-4.7172
T0
M30
